<svg
  version="1.0"
  id="Layer_1"
  xmlns="http://www.w3.org/2000/svg"
  xmlns:xlink="http://www.w3.org/1999/xlink"
  viewBox="0 0 64 64"
  enable-background="new 0 0 64 64"
  xml:space="preserve"
  fill="#000000"
>
  <g id="SVGRepo_bgCarrier" stroke-width="0"></g>
  <g
    id="SVGRepo_tracerCarrier"
    stroke-linecap="round"
    stroke-linejoin="round"
  ></g>
  <g id="SVGRepo_iconCarrier">
    {' '}
    <g>
      {' '}
      <path
        fill="#8A6539"
        d="M32,4c-8.836,0-16,7.164-16,16c0,8.835,12,28,12,28s12-19.165,12-28C48,11.164,40.837,4,32,4z"
      ></path>{' '}
      <path
        fill="#FFFFFF"
        d="M44.422,15.562c0-2.139-1.477-3.891-3.295-3.891c-1.816,0-3.293,1.752-3.293,3.891 c0,2.141,1.477,3.889,3.293,3.889C42.945,19.45,44.422,17.703,44.422,15.562z M19.873,11.835 c-1.816,0-3.293,1.75-3.293,3.891c0,2.139,1.477,3.889,3.293,3.889c1.818,0,3.295-1.75,3.295-3.889 C23.168,13.586,21.691,11.835,19.873,11.835z"
      ></path>{' '}
      <circle fill="#8A6539" cx="19.873" cy="15.562" r="3.891"></circle>{' '}
      <circle fill="#8A6539" cx="44.422" cy="15.562" r="3.891"></circle>{' '}
      <path
        fill="#3A5E77"
        d="M55.945,36.883c0-11.609-8.469-20.946-18.945-20.946c-10.477,0-18.945,9.336-18.945,20.946 c0,8.992,11.539,28.633,18.945,28.633C44.406,65.516,55.945,45.875,55.945,36.883z"
      ></path>{' '}
      <path
        fill="#FFFFFF"
        d="M37.977,53.141c-0.469-0.008-0.929-0.031-1.406-0.031c-7.5,0-16.633-7.773-16.633-15.602 c0-9.422,9.992-25.304,16.633-25.304c6.641,0,16.633,15.883,16.633,25.304c0,7.828-9.133,15.602-16.633,15.602 C38.906,53.109,38.437,53.133,37.977,53.141z M37.977,12.953c-6.539,0-14.633,14.453-14.633,22.273 c0,6.773,8.703,14.477,14.633,14.477c5.93,0,14.633-7.703,14.633-14.477C52.609,27.406,44.516,12.953,37.977,12.953z"
      ></path>{' '}
      <path
        fill="#3A5E77"
        d="M26.344,33.773c-3.297-0.094-6.086-2.062-6.703-4.781c-0.617-2.719,1.344-5.281,4.641-5.188 c3.297,0.094,6.086,2.062,6.703,4.781C31.242,31.586,29.641,33.867,26.344,33.773z"
      ></path>{' '}
      <path
        fill="#3A5E77"
        d="M44.609,33.773c-3.297-0.094-4.898-2.375-5.516-5.094c-0.617-2.719,1.344-4.945,4.641-4.852 c3.297,0.094,6.086,2.133,6.703,4.852C49.507,31.586,47.906,33.867,44.609,33.773z"
      ></path>{' '}
      <path
        fill="#8A6539"
        d="M32,39.953c-6.641,0-16.633-6.773-16.633-14.602c0-9.422,9.992-25.304,16.633-25.304 c6.641,0,16.633,15.883,16.633,25.304C48.633,33.18,38.641,39.953,32,39.953z M32,12.953c-6.539,0-14.633,14.453-14.633,22.273 c0,6.773,8.703,14.477,14.633,14.477c5.93,0,14.633-7.703,14.633-14.477C46.633,27.406,38.539,12.953,32,12.953z"
      ></path>{' '}
    </g>{' '}
  </g>{' '}
</svg>